<svg width="8" height="8" viewBox="0 0 8 8" fill="none" xmlns="http://www.w3.org/2000/svg">
<path d="M0.904 7.128V6.104C0.904 6.01867 0.925333 5.94133 0.968 5.872C1.01067 5.80267 1.08533 5.74133 1.192 5.688L4.784 3.872C4.89067 3.81867 5 3.77067 5.112 3.728C5.22933 3.68533 5.35467 3.65067 5.488 3.624C5.35467 3.592 5.22933 3.55733 5.112 3.52C5 3.47733 4.89067 3.42667 4.784 3.368L1.192 1.544C1.08533 1.49067 1.01067 1.432 0.968 1.368C0.925333 1.29867 0.904 1.21867 0.904 1.128V0.112L7.088 3.32V3.912L0.904 7.128Z" fill="#6D6D6D"/>
</svg>
